<?xml version="1.0" standalone="no"?>
<!DOCTYPE svg PUBLIC "-//W3C//DTD SVG 20010904//EN"
 "http://www.w3.org/TR/2001/REC-SVG-20010904/DTD/svg10.dtd">
<svg version="1.0" xmlns="http://www.w3.org/2000/svg"
 width="920.000000pt" height="980.000000pt" viewBox="0 0 920.000000 980.000000"
 preserveAspectRatio="xMidYMid meet">

<g transform="translate(0.000000,980.000000) scale(0.100000,-0.100000)"
fill="#000000" stroke="none">
<path d="M4360 9790 c-568 -56 -1097 -303 -1498 -700 -388 -383 -629 -860
-714 -1410 -8 -55 -13 -180 -13 -350 1 -297 14 -403 81 -648 244 -889 989
-1580 1894 -1756 380 -74 793 -57 1155 47 783 227 1406 828 1661 1604 44 132
82 301 105 463 16 112 16 470 1 590 -54 404 -192 772 -410 1090 -104 152 -167
226 -306 365 -375 374 -847 610 -1376 690 -123 18 -459 27 -580 15z"/>
<path d="M2382 4623 c-235 -183 -523 -454 -721 -678 -318 -359 -595 -769 -773
-1143 -374 -786 -335 -1295 136 -1768 184 -185 377 -320 656 -460 593 -297
1344 -480 2255 -549 239 -19 850 -27 1095 -15 1390 67 2535 431 3114 990 212
205 330 396 393 639 31 121 36 335 10 476 -88 480 -394 1052 -866 1615 -191
228 -490 519 -736 717 -86 69 -255 194 -292 216 -7 4 -60 -16 -121 -47 -442
-222 -987 -379 -1532 -441 -74 -8 -238 -18 -365 -22 -679 -18 -1274 118 -1953
447 l-202 99 -98 -76z"/>
</g>
</svg>
