<?xml version="1.0" standalone="no"?>
<!DOCTYPE svg PUBLIC "-//W3C//DTD SVG 20010904//EN"
 "http://www.w3.org/TR/2001/REC-SVG-20010904/DTD/svg10.dtd">
<svg version="1.0" xmlns="http://www.w3.org/2000/svg"
 width="856.000000pt" height="400.000000pt" viewBox="0 0 856.000000 400.000000"
 preserveAspectRatio="xMidYMid meet">

<g transform="translate(0.000000,400.000000) scale(0.100000,-0.100000)"
fill="#000000" stroke="none">
<path d="M2990 2243 c-85 -44 -78 -168 12 -223 44 -26 54 -25 88 9 56 55 166
57 223 4 l30 -28 -7 33 c-22 121 -124 208 -255 219 -41 3 -65 0 -91 -14z"/>
<path d="M2892 2194 c-41 -33 -81 -111 -89 -173 -12 -100 54 -234 121 -247 75
-14 156 59 156 140 0 52 -7 62 -48 71 -88 19 -151 141 -112 216 14 24 12 24
-28 -7z"/>
<path d="M3125 2032 c-29 -18 -30 -20 -30 -98 0 -67 -4 -84 -24 -113 -13 -18
-44 -42 -69 -53 -41 -18 -43 -21 -26 -32 10 -6 53 -11 94 -11 64 0 83 4 128
29 61 34 106 85 128 148 19 55 13 78 -31 117 -30 26 -44 31 -88 31 -33 0 -63
-7 -82 -18z"/>
</g>
</svg>
